<svg width="40" height="40" viewBox="0 0 40 40" fill="none" xmlns="http://www.w3.org/2000/svg">
<path d="M20 3.33333C29.19 3.33333 36.6667 10.81 36.6667 20C36.6667 29.19 29.19 36.6667 20 36.6667C10.81 36.6667 3.33333 29.19 3.33333 20C3.33333 10.81 10.81 3.33333 20 3.33333ZM20 0C8.955 0 0 8.955 0 20C0 31.045 8.955 40 20 40C31.045 40 40 31.045 40 20C40 8.955 31.045 0 20 0ZM30 27.5633L22.3467 19.9833L29.9233 12.3383L27.5633 10L19.9883 17.6483L12.3417 10.0767L10 12.4183L17.655 20.005L10.0767 27.6583L12.4183 30L20.01 22.34L27.6617 29.9233L30 27.5633Z" fill="black"/>
</svg>
