<svg width="35" height="35" viewBox="0 0 35 35" fill="none" xmlns="http://www.w3.org/2000/svg">
<path fill-rule="evenodd" clip-rule="evenodd" d="M35 33.5416H5.83333C2.61333 33.5416 0 30.9282 0 27.7083V4.82117C0.456458 3.25929 1.87396 1.45825 4.375 1.45825C7.08021 1.45825 8.41313 3.41534 8.74271 4.82992L8.75 7.29158H35V33.5416ZM32.0833 10.2083H8.75V26.2499C8.75 26.2499 7.89396 24.7916 5.94708 24.7916C4.33708 24.7916 2.91667 26.0983 2.91667 27.7083C2.91667 29.3183 4.22333 30.6249 5.83333 30.6249H32.0833V10.2083ZM29.1667 27.7083H11.6667V13.1249H29.1667V27.7083ZM17.5 14.5833H13.125V26.2499H27.7083V14.5833H18.9583V18.9583H27.7083V20.4166H24.7917V24.7916H23.3333V20.4166H18.9583V24.7916H17.5V14.5833Z" fill="black"/>
</svg>
