<svg width="30" height="30" viewBox="0 0 30 30" fill="none" xmlns="http://www.w3.org/2000/svg">
<g clip-path="url(#clip0)">
<path fill-rule="evenodd" clip-rule="evenodd" d="M16.875 25C18.255 25 19.375 26.12 19.375 27.5C19.375 28.88 18.255 30 16.875 30C15.495 30 14.375 28.88 14.375 27.5C14.375 26.12 15.495 25 16.875 25ZM3.7475 30C3 30 0.71125 27.8075 0.31375 24.62C-0.21625 20.3525 2.96875 17.6287 5.83 17.2825C6.56375 14.9138 8.92375 11.4275 13.8725 11.32C14.82 8.8425 18.1337 5.68625 22.4225 7.3375C24.4812 8.13 26.2987 9.96375 27.0537 12.0088C27.3425 12.7888 26.1662 13.215 25.8825 12.4425C25.245 10.72 23.7113 9.17375 21.9738 8.50375C18.7525 7.26625 16.105 9.4175 15.1962 11.3762C16.58 11.5262 17.8112 11.945 18.64 12.4875C19.7762 13.23 20.4813 14.435 20.525 15.7088C20.5637 16.82 20.1125 17.8175 19.2862 18.4425C18.4688 19.0625 17.4212 19.2463 16.4137 18.9475C15.2062 18.59 14.2288 17.6025 13.735 16.2362C13.3763 15.245 13.255 13.9275 13.5125 12.585C9.6825 12.8162 7.84125 15.4675 7.16875 17.2625C8.64375 17.39 9.9325 17.98 10.7075 18.5275C11.9062 19.3725 12.5788 20.5275 12.5988 21.7762C12.6175 22.85 12.145 23.8563 11.335 24.47C10.575 25.045 9.41625 25.2188 8.38125 24.905C7.18 24.5437 6.25625 23.6038 5.7825 22.2575C5.46375 21.3538 5.31375 20.0375 5.5275 18.6087C3.48875 19.06 1.1375 21.1025 1.555 24.465C1.78 26.275 2.815 28.075 4.07375 28.8425C4.61125 29.1687 4.37625 30 3.7475 30ZM25.3825 17.4675L26.8888 20.2487L30 20.8225L27.82 23.1137L28.2363 26.25L25.3825 24.885L22.5288 26.25L22.945 23.1137L20.765 20.8225L23.8762 20.2487L25.3825 17.4675ZM6.82 18.495C6.5675 19.775 6.66 20.9863 6.96125 21.8425C7.395 23.0725 8.16875 23.5362 8.74125 23.7075C9.49625 23.9362 10.21 23.7525 10.5813 23.4737C11.0662 23.1062 11.3613 22.4637 11.3488 21.7987C11.335 20.9575 10.8512 20.1575 9.98625 19.5475C9.305 19.0662 8.1375 18.5437 6.82 18.495ZM14.7863 12.6C14.5038 13.8725 14.6488 15.0875 14.91 15.8113C15.2688 16.7987 15.945 17.5063 16.7675 17.7488C17.3937 17.9338 18.035 17.8237 18.5312 17.4462C19.0287 17.07 19.3 16.4525 19.2762 15.7525C19.245 14.8713 18.765 14.0612 17.9562 13.5337C17.3175 13.1163 16.1462 12.7125 14.7863 12.6ZM5.625 0L7.46 3.38875L11.25 4.08625L8.595 6.87875L9.10125 10.7L5.625 9.03625L2.14875 10.7L2.655 6.87875L0 4.08625L3.79 3.38875L5.625 0V0ZM26.875 0C28.6 0 30 1.4 30 3.125C30 4.85 28.6 6.25 26.875 6.25C25.15 6.25 23.75 4.85 23.75 3.125C23.75 1.4 25.15 0 26.875 0Z" fill="black"/>
</g>
<defs>
<clipPath id="clip0">
<rect width="30" height="30" fill="white"/>
</clipPath>
</defs>
</svg>
