<svg width="609" height="326" viewBox="0 0 609 326" fill="none" xmlns="http://www.w3.org/2000/svg">
<path d="M421.313 42.8729C442.497 42.8729 459.736 60.1124 459.736 81.2967V260.608C459.736 281.792 442.497 299.032 421.313 299.032H242.002C220.818 299.032 203.578 281.792 203.578 260.608V81.2967C203.578 60.1124 220.818 42.8729 242.002 42.8729H421.313ZM421.313 17.2571H242.002C206.626 17.2571 177.962 45.934 177.962 81.2967V260.608C177.962 295.971 206.626 324.647 242.002 324.647H421.313C456.688 324.647 485.352 295.971 485.352 260.608V81.2967C485.352 45.934 456.688 17.2571 421.313 17.2571Z" fill="white"/>
<path d="M138.056 23.0093C201.493 23.0093 253.103 74.6193 253.103 138.056C253.103 201.493 201.493 253.103 138.056 253.103C74.6193 253.103 23.0093 201.493 23.0093 138.056C23.0093 74.6193 74.6193 23.0093 138.056 23.0093ZM138.056 0C61.8146 0 0 61.8146 0 138.056C0 214.297 61.8146 276.112 138.056 276.112C214.297 276.112 276.112 214.297 276.112 138.056C276.112 61.8146 214.297 0 138.056 0Z" fill="black"/>
<path d="M103.217 177.316C93.8335 177.316 84.6658 176.291 75.7137 174.242C66.8695 172.085 59.5892 169.226 53.8728 165.667L66.1684 137.84C71.5612 140.968 77.6012 143.503 84.2883 145.444C90.9754 147.278 97.3928 148.195 103.541 148.195C108.826 148.195 112.601 147.709 114.866 146.738C117.13 145.66 118.263 144.096 118.263 142.047C118.263 139.674 116.753 137.894 113.733 136.708C110.821 135.521 105.967 134.227 99.1724 132.825C90.4361 130.991 83.1558 129.05 77.3315 127.001C71.5073 124.844 66.4381 121.392 62.1238 116.647C57.8096 111.793 55.6524 105.268 55.6524 97.0706C55.6524 89.9521 57.6478 83.4808 61.6385 77.6565C65.6291 71.8323 71.5612 67.2484 79.4347 63.9048C87.4161 60.5613 97.0692 58.8895 108.394 58.8895C116.16 58.8895 123.764 59.7524 131.206 61.4781C138.756 63.0959 145.389 65.5227 151.105 68.7584L139.619 96.4235C128.509 90.815 117.993 88.0107 108.071 88.0107C98.2556 88.0107 93.3482 90.3836 93.3482 95.1292C93.3482 97.3942 94.8043 99.1199 97.7164 100.306C100.628 101.385 105.428 102.571 112.115 103.866C120.744 105.483 128.024 107.371 133.956 109.528C139.888 111.577 145.011 114.975 149.326 119.72C153.748 124.466 155.959 130.938 155.959 139.135C155.959 146.253 153.963 152.724 149.973 158.549C145.982 164.265 139.996 168.849 132.015 172.3C124.141 175.644 114.542 177.316 103.217 177.316Z" fill="white"/>
<path d="M267.31 314.811C262.88 318.435 257.444 321.153 251.002 322.965C244.76 324.777 238.116 325.683 231.07 325.683C213.353 325.683 199.662 321.052 189.998 311.791C180.335 302.529 175.503 289.041 175.503 271.323V193.71H148.927V163.51H175.503V126.666H213.252V163.51H256.438V193.71H213.252V270.417C213.252 278.269 215.165 284.309 218.99 288.537C222.816 292.563 228.352 294.577 235.6 294.577C244.056 294.577 251.102 292.363 256.74 287.933L267.31 314.811Z" fill="black"/>
<path d="M361.099 239.333C361.099 239.872 360.937 242.731 360.614 247.908H299.136C300.43 251.251 302.587 253.84 305.607 255.673C308.627 257.399 312.402 258.262 316.932 258.262C320.815 258.262 324.05 257.777 326.639 256.806C329.335 255.835 332.248 254.163 335.375 251.79L354.466 271.043C345.837 280.534 332.949 285.28 315.799 285.28C305.122 285.28 295.738 283.338 287.649 279.456C279.56 275.465 273.304 269.964 268.882 262.954C264.46 255.943 262.249 248.069 262.249 239.333C262.249 230.489 264.406 222.615 268.72 215.713C273.142 208.702 279.128 203.255 286.678 199.372C294.336 195.49 302.911 193.548 312.402 193.548C321.354 193.548 329.497 195.328 336.831 198.887C344.273 202.446 350.152 207.677 354.466 214.58C358.888 221.483 361.099 229.734 361.099 239.333ZM312.726 218.463C308.951 218.463 305.823 219.488 303.342 221.537C300.861 223.586 299.243 226.498 298.488 230.273H326.963C326.208 226.606 324.59 223.748 322.109 221.699C319.628 219.541 316.5 218.463 312.726 218.463Z" fill="white"/>
<path d="M475.764 281.686C473.522 285.45 468.1 285.484 465.813 281.748L355.907 101.929C353.56 98.0767 356.305 93.1367 360.833 93.1088L577.584 91.8415C582.055 91.8139 584.917 96.6961 582.608 100.612L475.764 281.686ZM470.961 310.546C479.785 310.492 488.594 306.141 493.708 297.506L605.255 108.948C615.77 91.1995 602.893 68.6486 582.191 68.7763L356.756 70.1669C336.054 70.2946 323.468 93.0025 334.189 110.621L448.054 297.788C453.285 306.359 462.125 310.601 470.961 310.546Z" fill="black"/>
<path d="M522.886 159.519C522.886 160.059 522.724 162.917 522.4 168.094H460.922C462.217 171.437 464.374 174.026 467.394 175.86C470.414 177.585 474.189 178.448 478.719 178.448C482.601 178.448 485.837 177.963 488.426 176.992C491.122 176.021 494.034 174.35 497.162 171.977L516.253 191.229C507.624 200.72 494.735 205.466 477.586 205.466C466.908 205.466 457.525 203.525 449.436 199.642C441.346 195.651 435.091 190.151 430.669 183.14C426.247 176.129 424.036 168.256 424.036 159.519C424.036 150.675 426.193 142.802 430.507 135.899C434.929 128.888 440.915 123.441 448.465 119.559C456.123 115.676 464.697 113.734 474.189 113.734C483.141 113.734 491.284 115.514 498.618 119.073C506.06 122.633 511.938 127.864 516.253 134.766C520.675 141.669 522.886 149.92 522.886 159.519ZM474.512 138.649C470.737 138.649 467.609 139.674 465.129 141.723C462.648 143.772 461.03 146.684 460.275 150.459H488.749C487.994 146.792 486.376 143.934 483.896 141.885C481.415 139.728 478.287 138.649 474.512 138.649Z" fill="black"/>
</svg>
