<svg width="30" height="30" viewBox="0 0 30 30" fill="none" xmlns="http://www.w3.org/2000/svg">
<path d="M15 27.5C8.09959 27.4924 2.50758 21.9004 2.5 15V14.75C2.63741 7.88069 8.29324 2.40997 15.1634 2.50112C22.0335 2.59229 27.5421 8.21114 27.4973 15.0816C27.4524 21.9523 21.8708 27.4986 15 27.5ZM15 5.00002C9.47715 5.00002 5 9.47717 5 15C5 20.5229 9.47715 25 15 25C20.5229 25 25 20.5229 25 15C24.9937 9.47975 20.5203 5.00622 15 5.00002ZM13.1875 21.25L11.42 19.4813L15.8387 15.0625L11.42 10.6438L13.1875 8.87502L19.375 15.0625L13.1887 21.25H13.1875Z" fill="black"/>
</svg>
