<svg width="94" height="50" viewBox="0 0 94 50" fill="none" xmlns="http://www.w3.org/2000/svg">
<g id="toggle-dark-mode">
<rect id="box" width="94" height="50" rx="25" fill="white"/>
<path id="moon" d="M63.37 13C69.987 13 75.37 18.383 75.37 25C75.37 31.617 69.987 37 63.37 37C61.476 37 59.74 36.503 58 35.821C60.948 35.317 67.37 32.555 67.37 25C67.37 17.546 61.453 14.792 58 14.179C59.5 13.333 61.476 13 63.37 13Z" fill="black"/>
<g id="sun" clip-path="url(#clip0)">
<path id="Vector" d="M40.088 26.126L42 25L40.088 23.874C39.067 23.272 38.716 21.964 39.3 20.932L40.393 19L38.173 18.98C36.988 18.97 36.03 18.012 36.02 16.827L36 14.608L34.068 15.701C33.037 16.284 31.728 15.934 31.127 14.913L30 13L28.873 14.913C28.271 15.934 26.963 16.285 25.932 15.701L24 14.608L23.98 16.827C23.97 18.012 23.012 18.97 21.827 18.98L19.607 19L20.7 20.932C21.284 21.964 20.933 23.272 19.912 23.874L18 25L19.912 26.126C20.933 26.728 21.284 28.036 20.7 29.068L19.607 31L21.827 31.02C23.012 31.03 23.97 31.988 23.98 33.173L24 35.392L25.932 34.299C26.963 33.716 28.272 34.066 28.873 35.087L30 37L31.127 35.087C31.729 34.066 33.037 33.715 34.068 34.299L36 35.392L36.02 33.173C36.031 31.988 36.989 31.03 38.173 31.02L40.393 31L39.3 29.068C38.716 28.037 39.066 26.728 40.088 26.126V26.126ZM29.971 33C25.56 33 21.971 29.411 21.971 25C21.971 20.589 25.559 17 29.971 17C34.383 17 37.971 20.589 37.971 25C37.971 29.411 34.382 33 29.971 33ZM36 25C36 28.313 33.313 31 30 31C26.687 31 24 28.313 24 25C24 21.687 26.687 19 30 19C33.313 19 36 21.687 36 25Z" fill="white"/>
</g>
<path id="circle" d="M49 25C49 35.4934 40.4934 44 30 44C19.5066 44 11 35.4934 11 25C11 14.5066 19.5066 6 30 6C40.4934 6 49 14.5066 49 25Z" fill="black"/>
</g>
<defs>
<clipPath id="clip0">
<rect width="24" height="24" fill="white" transform="translate(18 13)"/>
</clipPath>
</defs>
</svg>
