<svg width="50" height="50" viewBox="0 0 50 50" fill="none" xmlns="http://www.w3.org/2000/svg">
<g id="iconmonstr-audio-10 1" clip-path="url(#clip0)">
<path id="unmute" d="M37.5182 18.7783C39.0641 20.3263 40.0183 22.4661 40.0142 24.8267C40.01 27.1873 39.0516 29.3229 37.5037 30.8688L40.0434 33.417C42.2455 31.223 43.6102 28.1853 43.6164 24.8309C43.6206 21.4743 42.2664 18.4387 40.0704 16.2364L37.5182 18.7783ZM41.9809 14.33C44.6644 17.0219 46.3186 20.7326 46.3124 24.8329C46.3061 28.9333 44.6373 32.6461 41.9455 35.3317L44.5498 37.9444C47.9083 34.5941 49.9938 29.9563 50 24.8371C50.0104 19.718 47.9458 15.0842 44.5935 11.7256L41.9809 14.33Z" fill="white"/>
<path id="mute" d="M49.9375 21.5292L46.5083 24.9855L50 28.4355L47.2417 31.1959L43.7708 27.7521L40.3167 31.2355L37.5708 28.4917L41.0083 25.0146L37.5292 21.5625L40.2708 18.8167L43.7396 22.25L47.1792 18.7709L49.9375 21.5292Z" fill="white"/>
<path id="Vector" d="M6.25 18.75V31.25H4.16667V18.75H6.25ZM33.3333 4.16669L14.5833 14.5834V19.35L29.1667 11.2479V38.7521L14.5833 30.65V35.4167L33.3333 45.8334V4.16669ZM10.4167 14.5834H0V35.4167H10.4167V14.5834Z" fill="white"/>
</g>
<defs>
<clipPath id="clip0">
<rect width="50" height="50" fill="white"/>
</clipPath>
</defs>
</svg>
